<?xml version="1.0" encoding="UTF-8"?>
<!DOCTYPE svg PUBLIC "-//W3C//DTD SVG 1.1//EN" "http://www.w3.org/Graphics/SVG/1.1/DTD/svg11.dtd">
<!-- Creator: CorelDRAW 2019 (64 Bit Versão de avaliação) -->
<svg xmlns="http://www.w3.org/2000/svg" xml:space="preserve" width="5.731mm" height="6.4346mm" version="1.1" style="shape-rendering:geometricPrecision; text-rendering:geometricPrecision; image-rendering:optimizeQuality; fill-rule:evenodd; clip-rule:evenodd"
viewBox="0 0 573.1 643.46"
 xmlns:xlink="http://www.w3.org/1999/xlink">
 <defs>
  <style type="text/css">
   <![CDATA[
    .str0 {stroke:#D7CC75;stroke-width:7.62;stroke-miterlimit:22.9256}
    .fil3 {fill:#FEFEFE}
    .fil0 {fill:#D7CC75}
    .fil1 {fill:black}
    .fil2 {fill:#D7CC75;fill-rule:nonzero}
   ]]>
  </style>
 </defs>
 <g id="Camada_x0020_1">
  <metadata id="CorelCorpID_0Corel-Layer"/>
  <g id="_2250238003728">
   <g>
    <path class="fil0" d="M236.32 510.61c69.58,111.01 -32.34,125.36 0,0z"/>
    <path class="fil0" d="M154.76 582.13c104.4,79.14 127.73,-21.11 0,0z"/>
    <path class="fil0" d="M206.62 491.93c69.58,111 -32.34,125.35 0,0z"/>
    <path class="fil0" d="M105.2 548.64c104.4,79.14 127.73,-21.11 0,0z"/>
    <path class="fil0" d="M175.28 470.16c69.58,111 -32.34,125.35 0,0z"/>
    <path class="fil0" d="M61.81 515.84c104.4,79.13 127.73,-21.11 0,0z"/>
    <path class="fil0" d="M145.35 449.93c69.57,111.01 -32.35,125.36 0,0z"/>
    <path class="fil0" d="M30.42 486.37c104.4,79.14 127.73,-21.11 0,0z"/>
    <path class="fil0" d="M114.85 419.37c69.57,111.01 -32.35,125.36 0,0z"/>
    <path class="fil0" d="M83.36 386.6c69.57,111 -32.35,125.36 0,0z"/>
    <path class="fil0" d="M-1.34 452.62c104.4,79.14 127.73,-21.1 0,0z"/>
   </g>
   <path class="fil0" d="M300.22 643.46c-22.74,-16.69 -48.5,-37.74 -77.98,-58.58 -24.44,-17.28 -52.91,-34.42 -71.23,-48.79 -18.74,-14.71 -11.75,-14.74 -29.84,-30.4 -31.83,-27.54 -63.89,-60.99 -97.93,-91.72l5.52 -4.9c32.9,32.02 65.88,64.22 96.99,92.85 17.66,16.27 9.78,15.98 27.63,30.14 17.65,13.99 45.51,30.56 69.77,47.73 28.91,20.45 54.67,41.76 78.91,60.6l-1.84 3.07z"/>
  </g>
  <path class="fil0" d="M105.56 193.2c53.94,9.09 106.89,-55.91 179.59,-53.5 63.26,2.09 105.67,42.11 144.74,52.4 9.2,2.42 24.26,1.5 32.53,1.2 -11.75,50.23 -14.43,96.04 -15.82,127.19 -5.16,115.48 20.45,123.7 -162.1,231.03 -214.33,-121.68 -141.64,-119.06 -167.48,-310.81 -2.19,-16.21 -5.63,-34.15 -11.46,-47.51z"/>
  <path class="fil1" d="M120.59 206.03c49.4,8.33 97.88,-51.19 164.46,-48.99 57.93,1.92 96.77,38.57 132.55,47.99 8.42,2.21 22.21,1.37 29.79,1.09 -10.76,46 -13.22,87.96 -14.49,116.48 -4.72,105.75 18.73,113.29 -148.44,211.57 -196.28,-111.43 -129.71,-109.03 -153.38,-284.62 -2,-14.85 -5.15,-31.28 -10.49,-43.52z"/>
  <path class="fil1" d="M126.11 210.75c47.73,8.05 94.58,-49.46 158.91,-47.34 55.97,1.86 93.49,37.27 128.07,46.37 8.13,2.14 21.46,1.33 28.78,1.06 -10.4,44.44 -12.77,84.98 -14,112.54 -4.57,102.18 18.09,109.45 -143.43,204.42 -189.64,-107.67 -125.33,-105.35 -148.19,-275.01 -1.93,-14.34 -4.98,-30.21 -10.14,-42.04z"/>
  <path class="fil1 str0" d="M284.18 368.09l0.32 148.99c24.27,-15.28 98.14,-53.41 122.95,-95.7 11.86,-20.23 12.65,-46.44 10.29,-79.17l-107.75 0c0,-14.29 -11.58,-25.87 -25.87,-25.87l-0.06 0 -0.31 -147.74c-54.94,-0.09 -87.83,46.61 -149.46,49.08 13.52,52.95 14.84,69.89 15.34,124.53l108.62 0c0,14.29 11.58,25.88 25.87,25.88l0.06 0z"/>
  <path class="fil2" d="M257.04 306.77l0 -3.27c-7.58,-0.7 -9.1,-1.75 -12.83,-11.78 -7.46,-20.29 -15.28,-42.45 -22.51,-62.51l-3.61 1.05 -24.14 61.23c-4.09,10.26 -5.72,10.96 -13.07,12.01l0 3.27 25.31 0 0 -3.27c-8.75,-0.81 -9.8,-1.98 -7.23,-9.33 1.52,-4.9 3.27,-9.79 5.13,-15.04l24.84 0c2.57,7.11 4.9,13.41 6.42,17.96 1.51,4.55 0.46,5.48 -6.88,6.41l0 3.27 28.57 0zm-29.74 -32.66l-21.46 0c3.5,-9.56 7.23,-19.71 10.96,-29.74l0.24 0 10.26 29.74z"/>
  <path class="fil2" d="M354.26 405.28c6.55,-1.75 15.8,-6.32 15.8,-17.44 0,-5.38 -2.34,-10.53 -6.55,-13.34 -3.63,-2.57 -8.78,-3.98 -17.56,-3.98l-30.08 0 0 3.28c9.36,0.7 9.83,1.4 9.83,11.12l0 47.17c0,9.83 -0.7,10.53 -10.77,11.23l0 3.28 25.87 0c9.25,0 16.97,-1.41 22.94,-4.68 6.91,-3.86 11.24,-9.83 11.24,-17.68 0,-11.7 -9.13,-16.85 -20.72,-18.61l0 -0.35zm-18.73 -1.05l0 -22.94c0,-3.86 0.47,-5.15 1.52,-5.85 1.18,-0.71 3.75,-1.17 6.68,-1.17 11.11,0 15.56,7.02 15.56,14.98 0,9.83 -5.38,14.98 -18.26,14.98l-5.5 0zm0 3.86l5.39 0c14.28,0 22.47,5.27 22.47,17.33 0,12.17 -8.55,17.08 -18.14,17.2 -7.49,0 -9.72,-2.22 -9.72,-10.65l0 -23.88z"/>
  <path class="fil2" d="M282.72 336.58l7.2 10.04c1.01,-1.88 1.72,-3.32 2.12,-4.33 0.41,-1 0.61,-1.86 0.61,-2.56 0,-1.39 -1,-2.23 -3,-2.52l0 -0.45 8.43 0 0 0.45c-0.67,0.05 -1.21,0.17 -1.63,0.33 -0.42,0.17 -0.81,0.42 -1.19,0.77 -0.74,0.69 -1.65,2.15 -2.74,4.39l-0.67 1.38c-0.36,0.78 -0.89,1.79 -1.58,3.04 0.55,0.72 1.2,1.49 1.94,2.32 0.75,0.83 1.41,1.51 1.99,2.04 0.82,0.75 1.55,1.29 2.16,1.63 0.61,0.34 1.21,0.51 1.8,0.51 0.62,0 1.13,-0.17 1.56,-0.51 0.42,-0.34 0.79,-0.9 1.11,-1.67l0.44 0.18c-0.72,2.46 -2.28,3.68 -4.67,3.68 -0.79,0 -1.63,-0.15 -2.49,-0.46 -0.88,-0.3 -1.67,-0.71 -2.38,-1.25 -1.08,-0.81 -2.2,-1.9 -3.36,-3.27 -0.64,0.92 -1.15,1.62 -1.56,2.08 -0.84,0.94 -1.81,1.66 -2.93,2.16 -1.12,0.49 -2.31,0.74 -3.58,0.74 -1.17,0 -2.3,-0.21 -3.4,-0.65 -1.08,-0.43 -1.98,-1.02 -2.66,-1.77 -1.29,-1.37 -1.93,-3.11 -1.93,-5.2 0,-2.06 0.62,-3.94 1.87,-5.62 0.49,-0.67 1.08,-1.29 1.77,-1.87 0.69,-0.6 1.63,-1.28 2.84,-2.05l0.35 -0.24c-0.9,-1.27 -1.54,-2.28 -1.92,-3.01 -0.88,-1.71 -1.32,-3.23 -1.32,-4.57 0,-0.83 0.2,-1.67 0.61,-2.49 0.5,-1.08 1.25,-1.9 2.22,-2.47 0.98,-0.56 2.16,-0.84 3.53,-0.84 1.79,0 3.26,0.49 4.42,1.47 1.15,0.96 1.73,2.22 1.73,3.75 0,1.12 -0.3,2.12 -0.89,2.99 -0.59,0.88 -1.55,1.73 -2.88,2.57 -0.93,0.6 -1.58,1.03 -1.92,1.28zm-3.11 1.93c-1.2,0.73 -2.14,1.76 -2.8,3.06 -0.67,1.32 -1,2.78 -1,4.4 0,1.11 0.17,2.18 0.52,3.22 0.35,1.04 0.81,1.92 1.4,2.64 0.55,0.65 1.21,1.15 1.98,1.51 0.77,0.37 1.59,0.54 2.44,0.54 1.33,0 2.53,-0.41 3.58,-1.25 0.39,-0.31 0.75,-0.67 1.07,-1.05 0.31,-0.39 0.71,-0.97 1.19,-1.71l-8.38 -11.36zm2.7 -2.4c0.67,-0.55 1.18,-1.01 1.52,-1.42 0.33,-0.4 0.64,-0.89 0.9,-1.45 0.5,-1.08 0.75,-2.22 0.75,-3.45 0,-1.45 -0.35,-2.6 -1.03,-3.46 -0.7,-0.85 -1.62,-1.28 -2.79,-1.28 -1.01,0 -1.82,0.33 -2.43,0.98 -0.63,0.65 -0.94,1.5 -0.94,2.54 0,0.62 0.13,1.24 0.38,1.87 0.25,0.62 0.73,1.47 1.44,2.56 0.68,1.04 1.41,2.08 2.2,3.11z"/>
  <path class="fil3" d="M333.29 237.01c10.57,10.32 4.17,17.39 6.99,21.69 6.16,9.39 31.25,31.79 42.07,42.64 4.31,4.33 -2.92,10.35 -6.22,6.49 -8.81,-10.34 -28.63,-37.83 -39.21,-45.34 -2.31,-1.63 -13.61,2.53 -22.41,-6.04 -9.78,-9.54 -14.91,-20.64 -7.42,-27.63 7.5,-6.99 16.42,-1.34 26.2,8.19z"/>
  <path class="fil3" d="M373.88 242.51c-9.74,8.73 -10.09,13.1 -10.6,17.83 -0.25,2.23 -0.88,4.49 -1.9,5.93 -6.31,8.81 -26.47,24.57 -37.32,34.61 -4.32,4.01 2.42,10.1 5.75,6.5 8.9,-9.63 24.17,-30.5 34.67,-37.33 1.18,-0.77 3.73,-0.81 6.56,-0.68 4.99,0.24 10.9,-0.8 19.31,-10.06 4.81,-5.29 12.55,-13.7 17.5,-21.7l-21.4 21.03c-1.5,1.41 -4.72,1.79 -1.72,-2.2 6.65,-8.22 12.67,-14.26 19.56,-22.08 -10.64,9.01 -18.59,16.21 -22.7,18.94 -3.29,2.18 -4.64,1.11 -1.82,-2.22 2.9,-3.42 9.45,-9.76 20.62,-21.16 -8.19,5.98 -15.86,12.33 -23.86,18.66 -1.5,1.41 -4.72,1.79 -1.73,-2.21l22.17 -20.39c-6.58,3.59 -17.57,11.57 -23.09,16.53z"/>
  <g id="_2250237994160">
   <rect class="fil3" x="178.21" y="435.65" width="81.97" height="4.85" rx="2.43" ry="2.43"/>
   <path class="fil3" d="M219.49 395.15c21.02,0 38.06,17.04 38.06,38.06l0 0.01 -76.12 0 0 -0.01c0,-21.02 17.04,-38.06 38.06,-38.06z"/>
   <path class="fil3" d="M219.49 389.62c3.56,0 6.45,2.89 6.45,6.46l0 0 -12.91 0 0 0c0,-3.57 2.89,-6.46 6.46,-6.46z"/>
  </g>
  <g id="_2250237991280">
   <g>
    <path class="fil0" d="M334.14 510.15c-69.57,111 32.35,125.36 0,0z"/>
    <path class="fil0" d="M415.71 581.66c-104.41,79.14 -127.73,-21.11 0,0z"/>
    <path class="fil0" d="M363.84 491.46c-69.57,111 32.35,125.36 0,0z"/>
    <path class="fil0" d="M465.27 548.18c-104.4,79.13 -127.73,-21.11 0,0z"/>
    <path class="fil0" d="M395.18 469.69c-69.57,111.01 32.35,125.36 0,0z"/>
    <path class="fil0" d="M508.66 515.37c-104.4,79.14 -127.73,-21.11 0,0z"/>
    <path class="fil0" d="M425.12 449.47c-69.58,111 32.34,125.35 0,0z"/>
    <path class="fil0" d="M540.05 485.91c-104.41,79.13 -127.73,-21.11 0,0z"/>
    <path class="fil0" d="M455.62 418.91c-69.58,111 32.34,125.35 0,0z"/>
    <path class="fil0" d="M487.11 386.13c-69.58,111.01 32.34,125.36 0,0z"/>
    <path class="fil0" d="M571.81 452.16c-104.41,79.14 -127.73,-21.11 0,0z"/>
   </g>
   <path class="fil0" d="M270.25 642.99c22.74,-16.68 48.49,-37.74 77.98,-58.58 24.44,-17.28 52.9,-34.41 71.23,-48.79 18.74,-14.7 11.75,-14.74 29.84,-30.39 31.83,-27.55 63.88,-60.99 97.93,-91.72l-5.53 -4.91c-32.89,32.03 -65.87,64.22 -96.98,92.86 -17.67,16.27 -9.79,15.97 -27.64,30.13 -17.64,13.99 -45.5,30.57 -69.77,47.74 -28.9,20.45 -54.66,41.76 -78.9,60.6l1.84 3.06z"/>
  </g>
  <rect class="fil3" x="236.35" y="90.48" width="95.17" height="38.07" rx="6.2" ry="7.44"/>
  <path class="fil3" d="M217.32 14.35c-9.82,-20.25 136.9,-17.98 133.24,0l-22.17 73.07 -91.72 0 -19.35 -73.07zm100.06 70.17l-1.8 -27.84 -1.79 -27.84 3.59 0 3.58 0 -1.79 27.84 -1.79 27.84zm-23.71 0.82l-1.79 -27.84 -1.8 -27.84 3.59 0 3.59 0 -1.8 27.84 -1.79 27.84zm-24.63 -0.28l-1.79 -27.84 -1.8 -27.83 3.59 0 3.59 0 -1.8 27.83 -1.79 27.84zm-20.35 -0.14l-1.8 -27.84 -1.79 -27.84 3.59 0 3.58 0 -1.79 27.84 -1.79 27.84z"/>
 </g>
</svg>
