<?xml version="1.0" encoding="UTF-8"?>
<!DOCTYPE svg PUBLIC "-//W3C//DTD SVG 1.1//EN" "http://www.w3.org/Graphics/SVG/1.1/DTD/svg11.dtd">
<!-- Creator: CorelDRAW 2019 (64 Bit Versão de avaliação) -->
<svg xmlns="http://www.w3.org/2000/svg" xml:space="preserve" width="10.2284mm" height="11.4832mm" version="1.1" style="shape-rendering:geometricPrecision; text-rendering:geometricPrecision; image-rendering:optimizeQuality; fill-rule:evenodd; clip-rule:evenodd"
viewBox="0 0 1022.84 1148.32"
 xmlns:xlink="http://www.w3.org/1999/xlink">
 <defs>
  <style type="text/css">
   <![CDATA[
    .str0 {stroke:#D7CC75;stroke-width:7.62;stroke-miterlimit:22.9256}
    .fil3 {fill:#FEFEFE}
    .fil0 {fill:#D7CC75}
    .fil1 {fill:black}
    .fil2 {fill:#D7CC75;fill-rule:nonzero}
   ]]>
  </style>
 </defs>
 <g id="Camada_x0020_1">
  <metadata id="CorelCorpID_0Corel-Layer"/>
  <g id="_2249470671168">
   <g>
    <g>
     <path class="fil0" d="M419.09 912.81c124.17,198.11 -57.73,223.72 0,0z"/>
     <path class="fil0" d="M273.52 1040.44c186.33,141.24 227.96,-37.67 0,0z"/>
     <path class="fil0" d="M366.08 879.46c124.17,198.11 -57.72,223.72 0,0z"/>
     <path class="fil0" d="M185.07 980.68c186.33,141.24 227.96,-37.67 0,0z"/>
     <path class="fil0" d="M310.15 840.61c124.17,198.11 -57.72,223.72 0,0z"/>
     <path class="fil0" d="M107.64 922.13c186.32,141.24 227.95,-37.67 0,0z"/>
     <path class="fil0" d="M256.73 804.52c124.17,198.1 -57.72,223.72 0,0z"/>
     <path class="fil0" d="M51.62 869.55c186.33,141.23 227.96,-37.67 0,0z"/>
     <path class="fil0" d="M202.3 749.98c124.17,198.11 -57.73,223.72 0,0z"/>
     <path class="fil0" d="M146.1 691.49c124.16,198.11 -57.73,223.72 0,0z"/>
     <path class="fil0" d="M-5.06 809.32c186.33,141.24 227.96,-37.67 0,0z"/>
    </g>
    <path class="fil0" d="M533.12 1149.9c-40.58,-29.78 -86.55,-67.36 -139.17,-104.56 -43.61,-30.82 -94.41,-61.41 -127.12,-87.07 -33.44,-26.24 -20.97,-26.3 -53.25,-54.24 -56.81,-49.16 -114.01,-108.84 -174.77,-163.69l9.85 -8.76c58.71,57.16 117.57,114.62 173.09,165.73 31.53,29.03 17.46,28.51 49.32,53.77 31.49,24.98 81.21,54.56 124.52,85.19 51.58,36.5 97.55,74.53 140.81,108.15l-3.28 5.48z"/>
   </g>
   <path class="fil0" d="M185.72 346.33c96.27,16.23 190.76,-99.77 320.51,-95.48 112.89,3.74 188.58,75.17 258.32,93.52 16.4,4.32 43.28,2.68 58.05,2.14 -20.97,89.64 -25.76,171.4 -28.24,226.99 -9.21,206.1 36.5,220.78 -289.28,412.31 -382.53,-217.16 -252.8,-212.48 -298.91,-554.68 -3.9,-28.93 -10.04,-60.94 -20.45,-84.8z"/>
   <path class="fil1" d="M212.54 369.24c88.17,14.86 174.69,-91.36 293.52,-87.43 103.38,3.42 172.69,68.83 236.55,85.63 15.03,3.96 39.64,2.46 53.17,1.96 -19.21,82.09 -23.6,156.97 -25.87,207.87 -8.43,188.74 33.43,202.18 -264.91,377.58 -350.3,-198.87 -231.5,-194.58 -273.73,-507.95 -3.56,-26.5 -9.19,-55.81 -18.73,-77.66z"/>
   <path class="fil1" d="M222.4 377.66c85.18,14.36 168.79,-88.28 283.59,-84.48 99.89,3.3 166.86,66.5 228.56,82.74 14.52,3.82 38.3,2.37 51.37,1.89 -18.56,79.32 -22.8,151.66 -24.99,200.85 -8.15,182.36 32.3,195.34 -255.96,364.82 -338.46,-192.15 -223.67,-188.01 -264.47,-490.79 -3.45,-25.6 -8.89,-53.93 -18.1,-75.03z"/>
   <path class="fil1 str0" d="M504.49 658.45l0.57 265.91c43.33,-27.28 175.16,-95.32 219.43,-170.8 21.16,-36.1 22.58,-82.87 18.37,-141.28l-192.29 0c0,-25.51 -20.68,-46.18 -46.18,-46.18l-0.1 0 -0.56 -263.67c-98.05,-0.16 -156.74,83.19 -266.73,87.6 24.13,94.49 26.48,124.73 27.37,222.25l193.84 0c0,25.5 20.68,46.17 46.18,46.17l0.1 0z"/>
   <path class="fil2" d="M456.06 549.02l0 -5.83c-13.53,-1.25 -16.23,-3.12 -22.89,-21.02 -13.32,-36.22 -27.27,-75.77 -40.17,-111.57l-6.46 1.88 -43.08 109.27c-7.28,18.32 -10.2,19.57 -23.31,21.44l0 5.83 45.17 0 0 -5.83c-15.61,-1.46 -17.49,-3.54 -12.91,-16.65 2.71,-8.74 5.83,-17.48 9.16,-26.85l44.33 0c4.58,12.7 8.74,23.93 11.45,32.05 2.71,8.12 0.83,9.79 -12.28,11.45l0 5.83 50.99 0zm-53.07 -58.28l-38.3 0c6.24,-17.07 12.91,-35.18 19.57,-53.08l0.41 0 18.32 53.08z"/>
   <path class="fil2" d="M629.57 724.83c11.7,-3.13 28.2,-11.28 28.2,-31.12 0,-9.61 -4.18,-18.8 -11.7,-23.81 -6.48,-4.6 -15.67,-7.11 -31.33,-7.11l-53.69 0 0 5.85c16.71,1.26 17.55,2.51 17.55,19.85l0 84.18c0,17.55 -1.26,18.8 -19.22,20.05l0 5.85 46.17 0c16.5,0 30.28,-2.51 40.94,-8.35 12.32,-6.9 20.05,-17.55 20.05,-31.55 0,-20.89 -16.29,-30.08 -36.97,-33.21l0 -0.63zm-33.42 -1.88l0 -40.94c0,-6.89 0.83,-9.19 2.71,-10.44 2.09,-1.26 6.69,-2.09 11.91,-2.09 19.84,0 27.78,12.53 27.78,26.74 0,17.54 -9.61,26.73 -32.59,26.73l-9.81 0zm0 6.9l9.6 0c25.49,0 40.11,9.4 40.11,30.91 0,21.73 -15.25,30.5 -32.38,30.71 -13.37,0 -17.33,-3.97 -17.33,-19.01l0 -42.61z"/>
   <path class="fil2" d="M501.9 602.22l12.85 17.93c1.8,-3.37 3.07,-5.94 3.78,-7.73 0.73,-1.8 1.08,-3.33 1.08,-4.58 0,-2.48 -1.78,-3.98 -5.35,-4.5l0 -0.79 15.04 0 0 0.79c-1.19,0.1 -2.15,0.3 -2.9,0.59 -0.76,0.31 -1.45,0.75 -2.13,1.38 -1.32,1.22 -2.94,3.83 -4.88,7.83l-1.2 2.47c-0.65,1.38 -1.58,3.19 -2.82,5.42 0.97,1.28 2.13,2.67 3.47,4.14 1.33,1.48 2.5,2.69 3.54,3.65 1.47,1.33 2.76,2.3 3.86,2.9 1.09,0.6 2.16,0.91 3.2,0.91 1.11,0 2.03,-0.31 2.79,-0.91 0.75,-0.61 1.41,-1.6 1.98,-2.97l0.79 0.32c-1.29,4.38 -4.07,6.57 -8.34,6.57 -1.41,0 -2.9,-0.28 -4.45,-0.82 -1.55,-0.54 -2.97,-1.28 -4.23,-2.23 -1.93,-1.45 -3.93,-3.39 -6,-5.85 -1.14,1.65 -2.06,2.89 -2.79,3.72 -1.49,1.68 -3.23,2.96 -5.23,3.84 -2,0.89 -4.12,1.34 -6.39,1.34 -2.08,0 -4.1,-0.39 -6.06,-1.16 -1.94,-0.77 -3.53,-1.83 -4.76,-3.17 -2.29,-2.44 -3.44,-5.54 -3.44,-9.28 0,-3.68 1.11,-7.03 3.34,-10.04 0.88,-1.18 1.94,-2.29 3.16,-3.33 1.23,-1.06 2.92,-2.27 5.07,-3.66l0.62 -0.42c-1.6,-2.27 -2.75,-4.06 -3.42,-5.37 -1.57,-3.05 -2.36,-5.77 -2.36,-8.15 0,-1.49 0.36,-2.98 1.08,-4.45 0.9,-1.93 2.23,-3.4 3.97,-4.4 1.76,-1.01 3.85,-1.51 6.31,-1.51 3.19,0 5.82,0.87 7.87,2.61 2.06,1.73 3.09,3.97 3.09,6.71 0,2 -0.53,3.78 -1.58,5.34 -1.06,1.55 -2.77,3.08 -5.13,4.58 -1.68,1.08 -2.83,1.84 -3.43,2.28zm-5.56 3.44c-2.14,1.31 -3.81,3.14 -5,5.48 -1.18,2.35 -1.78,4.96 -1.78,7.83 0,1.98 0.3,3.91 0.93,5.75 0.62,1.87 1.45,3.43 2.5,4.71 0.98,1.16 2.17,2.06 3.54,2.71 1.37,0.65 2.82,0.96 4.34,0.96 2.38,0 4.52,-0.74 6.4,-2.23 0.69,-0.57 1.33,-1.2 1.9,-1.88 0.56,-0.7 1.26,-1.72 2.12,-3.05l-14.95 -20.28zm4.82 -4.28c1.2,-0.97 2.11,-1.8 2.72,-2.52 0.59,-0.73 1.13,-1.6 1.59,-2.6 0.9,-1.92 1.35,-3.96 1.35,-6.16 0,-2.59 -0.62,-4.64 -1.85,-6.17 -1.24,-1.51 -2.89,-2.28 -4.97,-2.28 -1.8,0 -3.25,0.58 -4.34,1.74 -1.11,1.16 -1.67,2.68 -1.67,4.54 0,1.11 0.23,2.22 0.68,3.33 0.45,1.1 1.3,2.63 2.56,4.57 1.21,1.86 2.52,3.71 3.93,5.55z"/>
   <path class="fil3" d="M592.14 424.53c18.86,18.4 7.44,31.03 12.48,38.71 10.99,16.74 55.78,56.73 75.08,76.09 7.69,7.72 -5.22,18.48 -11.1,11.58 -15.73,-18.46 -51.1,-67.52 -69.99,-80.91 -4.11,-2.91 -24.29,4.51 -39.98,-10.79 -17.45,-17.01 -26.62,-36.83 -13.24,-49.3 13.37,-12.47 29.3,-2.39 46.75,14.62z"/>
   <path class="fil3" d="M664.58 434.33c-17.39,15.59 -18,23.39 -18.92,31.84 -0.43,3.97 -1.56,8.01 -3.39,10.57 -11.25,15.72 -47.24,43.84 -66.6,61.78 -7.72,7.14 4.31,18.02 10.26,11.59 15.88,-17.19 43.14,-54.43 61.87,-66.62 2.11,-1.37 6.67,-1.45 11.72,-1.21 8.9,0.42 19.44,-1.44 34.46,-17.97 8.58,-9.43 22.4,-24.43 31.22,-38.71l-38.18 37.53c-2.67,2.51 -8.42,3.2 -3.07,-3.94 11.86,-14.66 22.6,-25.43 34.9,-39.4 -18.98,16.08 -33.17,28.93 -40.52,33.81 -5.85,3.89 -8.27,1.97 -3.24,-3.96 5.19,-6.11 16.87,-17.42 36.81,-37.78 -14.62,10.68 -28.3,22.02 -42.59,33.31 -2.68,2.51 -8.43,3.2 -3.08,-3.94l39.57 -36.39c-11.75,6.4 -31.36,20.65 -41.22,29.49z"/>
   <g>
    <rect class="fil3" x="315.38" y="779.04" width="146.3" height="8.66" rx="4.33" ry="4.33"/>
    <path class="fil3" d="M389.04 706.74c37.52,0 67.93,30.41 67.93,67.93l0 0.03 -135.85 0 0 -0.03c0,-37.52 30.41,-67.93 67.92,-67.93z"/>
    <path class="fil3" d="M389.04 696.88c6.37,0 11.53,5.16 11.53,11.52l0 0.01 -23.05 0 0 -0.01c0,-6.36 5.16,-11.52 11.52,-11.52z"/>
   </g>
   <g>
    <g>
     <path class="fil0" d="M593.67 911.98c-124.17,198.11 57.72,223.72 0,0z"/>
     <path class="fil0" d="M739.23 1039.61c-186.32,141.24 -227.95,-37.67 0,0z"/>
     <path class="fil0" d="M646.67 878.63c-124.17,198.1 57.73,223.72 0,0z"/>
     <path class="fil0" d="M827.68 979.85c-186.32,141.23 -227.95,-37.67 0,0z"/>
     <path class="fil0" d="M702.6 839.78c-124.17,198.11 57.73,223.72 0,0z"/>
     <path class="fil0" d="M905.12 921.3c-186.33,141.23 -227.96,-37.67 0,0z"/>
     <path class="fil0" d="M756.02 803.69c-124.16,198.1 57.73,223.72 0,0z"/>
     <path class="fil0" d="M961.13 868.72c-186.32,141.23 -227.95,-37.68 0,0z"/>
     <path class="fil0" d="M810.46 749.15c-124.17,198.1 57.72,223.72 0,0z"/>
     <path class="fil0" d="M866.66 690.66c-124.17,198.11 57.72,223.72 0,0z"/>
     <path class="fil0" d="M1017.81 808.49c-186.32,141.23 -227.95,-37.67 0,0z"/>
    </g>
    <path class="fil0" d="M479.64 1149.07c40.58,-29.78 86.54,-67.36 139.16,-104.56 43.62,-30.83 94.42,-61.41 127.12,-87.07 33.45,-26.24 20.97,-26.3 53.26,-54.24 56.8,-49.16 114.01,-108.85 174.76,-163.69l-9.85 -8.76c-58.71,57.16 -117.57,114.61 -173.08,165.72 -31.53,29.04 -17.47,28.51 -49.32,53.78 -31.49,24.97 -81.21,54.55 -124.52,85.19 -51.58,36.5 -97.56,74.53 -140.82,108.15l3.29 5.48z"/>
   </g>
   <rect class="fil3" x="419.14" y="163.02" width="169.84" height="67.94" rx="11.06" ry="13.28"/>
   <path class="fil3" d="M385.17 27.14c-17.53,-36.13 244.32,-32.07 237.79,0l-39.55 130.41 -163.7 0 -34.54 -130.41zm178.57 125.23l-3.2 -49.68 -3.2 -49.68 6.4 0 6.4 0 -3.2 49.68 -3.2 49.68zm-42.3 1.47l-3.2 -49.68 -3.2 -49.69 6.4 0 6.4 0 -3.2 49.69 -3.2 49.68zm-43.96 -0.49l-3.2 -49.68 -3.2 -49.69 6.4 0 6.4 0 -3.2 49.69 -3.2 49.68zm-36.32 -0.26l-3.2 -49.68 -3.2 -49.68 6.4 0 6.4 0 -3.2 49.68 -3.2 49.68z"/>
  </g>
 </g>
</svg>
