<?xml version="1.0" encoding="UTF-8"?>
<!DOCTYPE svg PUBLIC "-//W3C//DTD SVG 1.1//EN" "http://www.w3.org/Graphics/SVG/1.1/DTD/svg11.dtd">
<!-- Creator: CorelDRAW 2019 (64 Bit) -->
<svg xmlns="http://www.w3.org/2000/svg" xml:space="preserve" width="2.7092mm" height="2.7092mm" version="1.1" style="shape-rendering:geometricPrecision; text-rendering:geometricPrecision; image-rendering:optimizeQuality; fill-rule:evenodd; clip-rule:evenodd"
viewBox="0 0 270.92 270.92"
 xmlns:xlink="http://www.w3.org/1999/xlink">
 <defs>
  <style type="text/css">
   <![CDATA[
    .fil4 {fill:#FEFEFE}
    .fil1 {fill:#4B4B4D}
    .fil2 {fill:#373435}
    .fil5 {fill:#D7CC75}
    .fil0 {fill:#D7CC75}
    .fil3 {fill:#D7CC75;fill-rule:nonzero}
   ]]>
  </style>
 </defs>
 <g id="Camada_x0020_1">
  <metadata id="CorelCorpID_0Corel-Layer"/>
  <g id="_2178301723008">
   <path class="fil0" d="M59.5 82.89c22.52,3.79 44.61,-23.34 74.96,-22.33 26.41,0.87 44.11,17.58 60.42,21.87 3.84,1.01 10.12,0.62 13.58,0.5 -4.91,20.96 -6.03,40.09 -6.61,53.09 -2.15,48.2 8.54,51.63 -67.66,96.43 -89.46,-50.79 -59.12,-49.7 -69.91,-129.73 -0.91,-6.77 -2.35,-14.25 -4.78,-19.83z"/>
   <path class="fil1" d="M65.77 88.25c20.62,3.47 40.86,-21.37 68.65,-20.45 24.18,0.8 40.39,16.09 55.33,20.02 3.51,0.93 9.27,0.58 12.43,0.46 -4.49,19.2 -5.52,36.71 -6.05,48.62 -1.97,44.14 7.82,47.29 -61.96,88.31 -81.92,-46.51 -54.14,-45.51 -64.02,-118.8 -0.83,-6.2 -2.15,-13.06 -4.38,-18.16z"/>
   <path class="fil2" d="M68.08 90.21c19.92,3.36 39.47,-20.64 66.33,-19.76 23.36,0.78 39.02,15.56 53.45,19.36 3.4,0.89 8.96,0.55 12.02,0.44 -4.34,18.55 -5.33,35.47 -5.85,46.97 -1.9,42.65 7.56,45.69 -59.86,85.33 -79.16,-44.94 -52.32,-43.97 -61.86,-114.79 -0.81,-5.99 -2.08,-12.61 -4.23,-17.55z"/>
   <path class="fil3" d="M122.73 130.29l0 -1.36c-3.17,-0.29 -3.8,-0.73 -5.36,-4.92 -3.11,-8.47 -6.37,-17.72 -9.39,-26.09l-1.51 0.44 -10.08 25.55c-1.7,4.29 -2.38,4.58 -5.45,5.02l0 1.36 10.56 0 0 -1.36c-3.65,-0.34 -4.08,-0.83 -3.01,-3.9 0.63,-2.04 1.36,-4.09 2.14,-6.28l10.37 0c1.07,2.97 2.04,5.6 2.67,7.5 0.64,1.9 0.2,2.29 -2.87,2.68l0 1.36 11.93 0zm-12.41 -13.63l-8.96 0c1.46,-3.99 3.02,-8.23 4.57,-12.41l0.1 0 4.29 12.41z"/>
   <path class="fil3" d="M163.31 171.41c2.73,-0.73 6.59,-2.64 6.59,-7.28 0,-2.24 -0.97,-4.39 -2.73,-5.57 -1.52,-1.07 -3.67,-1.66 -7.33,-1.66l-12.56 0 0 1.37c3.91,0.29 4.11,0.59 4.11,4.64l0 19.69c0,4.1 -0.3,4.4 -4.5,4.69l0 1.37 10.8 0c3.86,0 7.08,-0.59 9.58,-1.96 2.88,-1.61 4.69,-4.1 4.69,-7.37 0,-4.89 -3.81,-7.04 -8.65,-7.77l0 -0.15zm-7.82 -0.44l0 -9.57c0,-1.62 0.2,-2.15 0.64,-2.45 0.49,-0.29 1.56,-0.48 2.78,-0.48 4.64,0 6.5,2.93 6.5,6.25 0,4.1 -2.25,6.25 -7.62,6.25l-2.3 0zm0 1.61l2.25 0c5.96,0 9.38,2.2 9.38,7.24 0,5.08 -3.57,7.13 -7.57,7.18 -3.13,0 -4.06,-0.93 -4.06,-4.45l0 -9.97z"/>
   <path class="fil3" d="M133.45 142.73l3 4.2c0.43,-0.79 0.72,-1.39 0.89,-1.81 0.17,-0.42 0.25,-0.78 0.25,-1.07 0,-0.58 -0.41,-0.93 -1.25,-1.05l0 -0.19 3.52 0 0 0.19c-0.28,0.02 -0.51,0.07 -0.68,0.14 -0.18,0.07 -0.34,0.17 -0.5,0.32 -0.31,0.28 -0.69,0.89 -1.14,1.83l-0.28 0.58c-0.15,0.32 -0.37,0.74 -0.66,1.26 0.23,0.3 0.5,0.63 0.81,0.97 0.31,0.35 0.59,0.63 0.83,0.85 0.34,0.32 0.64,0.54 0.9,0.68 0.26,0.15 0.51,0.22 0.75,0.22 0.26,0 0.48,-0.07 0.65,-0.22 0.18,-0.14 0.33,-0.37 0.46,-0.69l0.19 0.07c-0.3,1.03 -0.95,1.54 -1.95,1.54 -0.33,0 -0.68,-0.07 -1.04,-0.19 -0.36,-0.13 -0.69,-0.3 -0.99,-0.52 -0.45,-0.34 -0.92,-0.8 -1.4,-1.37 -0.27,0.39 -0.49,0.68 -0.65,0.87 -0.35,0.39 -0.76,0.69 -1.23,0.9 -0.47,0.2 -0.96,0.31 -1.49,0.31 -0.49,0 -0.96,-0.09 -1.42,-0.27 -0.45,-0.18 -0.83,-0.43 -1.11,-0.74 -0.54,-0.57 -0.81,-1.3 -0.81,-2.17 0,-0.86 0.26,-1.65 0.78,-2.35 0.21,-0.28 0.46,-0.54 0.74,-0.78 0.29,-0.25 0.68,-0.53 1.19,-0.85l0.14 -0.1c-0.37,-0.53 -0.64,-0.95 -0.8,-1.26 -0.36,-0.71 -0.55,-1.35 -0.55,-1.91 0,-0.34 0.08,-0.69 0.25,-1.04 0.21,-0.45 0.53,-0.79 0.93,-1.03 0.41,-0.23 0.9,-0.35 1.48,-0.35 0.74,0 1.36,0.21 1.84,0.61 0.48,0.41 0.72,0.93 0.72,1.57 0,0.47 -0.12,0.89 -0.37,1.25 -0.25,0.36 -0.65,0.72 -1.2,1.07 -0.39,0.25 -0.66,0.43 -0.8,0.53zm-1.3 0.81c-0.5,0.3 -0.89,0.73 -1.17,1.28 -0.28,0.55 -0.42,1.16 -0.42,1.83 0,0.47 0.07,0.92 0.22,1.35 0.14,0.43 0.34,0.8 0.59,1.1 0.22,0.27 0.5,0.48 0.82,0.63 0.32,0.15 0.66,0.23 1.02,0.23 0.56,0 1.06,-0.18 1.49,-0.52 0.17,-0.14 0.32,-0.28 0.45,-0.45 0.13,-0.16 0.3,-0.4 0.5,-0.71l-3.5 -4.74zm1.13 -1c0.28,-0.23 0.49,-0.42 0.63,-0.59 0.14,-0.17 0.27,-0.38 0.37,-0.61 0.21,-0.45 0.32,-0.93 0.32,-1.44 0,-0.61 -0.15,-1.08 -0.43,-1.44 -0.29,-0.36 -0.68,-0.54 -1.17,-0.54 -0.42,0 -0.76,0.14 -1.01,0.41 -0.26,0.27 -0.39,0.63 -0.39,1.06 0,0.26 0.05,0.52 0.16,0.78 0.1,0.26 0.3,0.62 0.6,1.07 0.28,0.44 0.59,0.87 0.92,1.3z"/>
   <path class="fil4" d="M154.55 101.18c4.42,4.3 1.74,7.25 2.92,9.05 2.57,3.92 13.05,13.27 17.56,17.8 1.8,1.8 -1.22,4.32 -2.59,2.7 -3.68,-4.31 -11.95,-15.79 -16.37,-18.92 -0.96,-0.68 -5.68,1.05 -9.35,-2.52 -4.08,-3.98 -6.23,-8.62 -3.1,-11.53 3.13,-2.92 6.85,-0.56 10.93,3.42z"/>
   <path class="fil4" d="M171.5 103.47c-4.07,3.64 -4.21,5.47 -4.43,7.44 -0.1,0.93 -0.36,1.88 -0.79,2.48 -2.63,3.67 -11.05,10.25 -15.58,14.45 -1.8,1.67 1.01,4.21 2.4,2.71 3.72,-4.02 10.09,-12.73 14.47,-15.58 0.5,-0.32 1.56,-0.34 2.74,-0.29 2.09,0.1 4.55,-0.33 8.06,-4.2 2.01,-2.21 5.24,-5.72 7.31,-9.06l-8.93 8.78c-0.63,0.59 -1.97,0.75 -0.72,-0.92 2.77,-3.43 5.28,-5.95 8.16,-9.21 -4.44,3.76 -7.76,6.76 -9.48,7.91 -1.37,0.9 -1.93,0.46 -0.75,-0.93 1.21,-1.43 3.94,-4.08 8.6,-8.84 -3.41,2.5 -6.61,5.15 -9.96,7.79 -0.62,0.59 -1.97,0.75 -0.72,-0.92l9.26 -8.51c-2.75,1.5 -7.34,4.83 -9.64,6.9z"/>
   <g>
    <rect class="fil4" x="89.82" y="184.09" width="34.22" height="2.03" rx="1.01" ry="1.01"/>
    <path class="fil4" d="M107.05 167.18c8.78,0 15.89,7.11 15.89,15.89l0 0 -31.77 0 0 0c0,-8.78 7.11,-15.89 15.88,-15.89z"/>
    <path class="fil4" d="M107.05 164.87c1.49,0 2.7,1.21 2.7,2.7l0 0 -5.39 0 0 0c0,-1.49 1.21,-2.7 2.69,-2.7z"/>
   </g>
   <g>
    <g>
     <path class="fil0" d="M114.08 215.38c29.04,46.33 -13.5,52.32 0,0z"/>
     <path class="fil0" d="M80.04 245.23c43.57,33.03 53.31,-8.81 0,0z"/>
     <path class="fil0" d="M101.68 207.58c29.04,46.33 -13.5,52.32 0,0z"/>
     <path class="fil0" d="M59.35 231.25c43.58,33.03 53.31,-8.81 0,0z"/>
     <path class="fil0" d="M88.6 198.49c29.04,46.33 -13.5,52.33 0,0z"/>
     <path class="fil0" d="M41.24 217.56c43.58,33.03 53.31,-8.81 0,0z"/>
     <path class="fil0" d="M76.11 190.05c29.04,46.33 -13.5,52.32 0,0z"/>
     <path class="fil0" d="M28.14 205.26c43.57,33.03 53.31,-8.81 0,0z"/>
     <path class="fil0" d="M63.38 177.29c29.04,46.34 -13.5,52.33 0,0z"/>
     <path class="fil0" d="M50.23 163.61c29.04,46.34 -13.5,52.33 0,0z"/>
     <path class="fil0" d="M14.88 191.17c43.58,33.03 53.31,-8.81 0,0z"/>
    </g>
    <path class="fil0" d="M140.75 270.83c-9.49,-6.97 -20.24,-15.76 -32.55,-24.46 -10.2,-7.21 -22.08,-14.36 -29.73,-20.36 -7.82,-6.14 -4.9,-6.15 -12.45,-12.69 -13.29,-11.49 -26.67,-25.45 -40.88,-38.28l2.3 -2.05c13.74,13.37 27.5,26.81 40.49,38.76 7.37,6.79 4.08,6.67 11.53,12.58 7.37,5.84 19,12.76 29.12,19.92 12.07,8.54 22.82,17.43 32.94,25.3l-0.77 1.28z"/>
   </g>
   <g>
    <g>
     <path class="fil0" d="M154.91 215.18c-29.04,46.34 13.5,52.33 0,0z"/>
     <path class="fil0" d="M188.96 245.03c-43.58,33.04 -53.32,-8.81 0,0z"/>
     <path class="fil0" d="M167.31 207.38c-29.04,46.34 13.5,52.33 0,0z"/>
     <path class="fil0" d="M209.64 231.06c-43.57,33.03 -53.31,-8.81 0,0z"/>
     <path class="fil0" d="M180.39 198.3c-29.04,46.33 13.5,52.32 0,0z"/>
     <path class="fil0" d="M227.76 217.36c-43.58,33.03 -53.32,-8.81 0,0z"/>
     <path class="fil0" d="M192.88 189.85c-29.04,46.34 13.51,52.33 0,0z"/>
     <path class="fil0" d="M240.86 205.06c-43.58,33.04 -53.32,-8.81 0,0z"/>
     <path class="fil0" d="M205.62 177.1c-29.05,46.33 13.5,52.32 0,0z"/>
     <path class="fil0" d="M218.76 163.42c-29.04,46.33 13.5,52.32 0,0z"/>
     <path class="fil0" d="M254.11 190.98c-43.58,33.03 -53.31,-8.81 0,0z"/>
    </g>
    <path class="fil0" d="M128.24 270.63c9.49,-6.96 20.24,-15.75 32.55,-24.45 10.2,-7.21 22.08,-14.36 29.73,-20.37 7.82,-6.13 4.91,-6.15 12.46,-12.68 13.28,-11.5 26.66,-25.46 40.87,-38.29l-2.3 -2.04c-13.73,13.36 -27.5,26.8 -40.48,38.76 -7.38,6.79 -4.09,6.66 -11.54,12.57 -7.36,5.84 -18.99,12.76 -29.12,19.93 -12.07,8.53 -22.82,17.43 -32.94,25.29l0.77 1.28z"/>
   </g>
   <rect class="fil4" x="114.09" y="40.01" width="39.72" height="15.89" rx="2.59" ry="3.11"/>
   <path class="fil4" d="M106.15 8.23c-4.1,-8.45 57.14,-7.5 55.61,0l-9.25 30.5 -38.28 0 -8.08 -30.5zm41.76 29.29l-0.75 -11.62 -0.74 -11.62 1.49 0 1.5 0 -0.75 11.62 -0.75 11.62zm-9.89 0.35l-0.75 -11.62 -0.75 -11.62 1.5 0 1.5 0 -0.75 11.62 -0.75 11.62zm-10.28 -0.12l-0.75 -11.62 -0.75 -11.62 1.5 0 1.49 0 -0.74 11.62 -0.75 11.62zm-8.5 -0.06l-0.75 -11.62 -0.74 -11.62 1.49 0 1.5 0 -0.75 11.62 -0.75 11.62z"/>
   <path class="fil5" d="M133.62 155.7l0.12 62.72c9.78,-6.13 36.08,-19.55 49.62,-36.54 7.63,-9.56 8.53,-21.27 7.24,-38.22l-44.96 -0.02c-0.89,-8.73 -8.04,-10.75 -10.82,-10.77l-0.11 -61.64c-23.96,-0.45 -36.78,19.46 -63.84,20.47 5.49,21.6 6.65,29.97 6.58,53.22l45.36 -0.01c0.15,5.83 5.23,10.6 10.81,10.79zm1.25 -1.24l0.13 61.68c9.96,-5.97 39.48,-21.95 49.53,-38.1 3.57,-5.74 6.56,-14.9 4.87,-33.12l-45.01 0.01c0.33,-6.07 -4.62,-11.26 -10.83,-10.81l-0.15 -61.66c-21.87,0.17 -35.93,19.25 -60.9,20.46 5.48,21.6 5.98,28.43 6.19,50.72l45.36 0.01c-0.29,6.44 4.91,11.08 10.81,10.81z"/>
  </g>
 </g>
</svg>
