<?xml version="1.0" encoding="UTF-8"?>
<!DOCTYPE svg PUBLIC "-//W3C//DTD SVG 1.1//EN" "http://www.w3.org/Graphics/SVG/1.1/DTD/svg11.dtd">
<!-- Creator: CorelDRAW 2019 (64 Bit) -->
<svg xmlns="http://www.w3.org/2000/svg" xml:space="preserve" width="16.2558mm" height="16.2558mm" version="1.1" style="shape-rendering:geometricPrecision; text-rendering:geometricPrecision; image-rendering:optimizeQuality; fill-rule:evenodd; clip-rule:evenodd"
viewBox="0 0 1625.58 1625.58"
 xmlns:xlink="http://www.w3.org/1999/xlink">
 <defs>
  <style type="text/css">
   <![CDATA[
    .fil4 {fill:#FEFEFE}
    .fil1 {fill:#4B4B4D}
    .fil2 {fill:#373435}
    .fil5 {fill:#D7CC75}
    .fil0 {fill:#D7CC75}
    .fil3 {fill:#D7CC75;fill-rule:nonzero}
   ]]>
  </style>
 </defs>
 <g id="Camada_x0020_1">
  <metadata id="CorelCorpID_0Corel-Layer"/>
  <g id="_2178618963296">
   <path class="fil0" d="M360.93 489.55c135.66,22.87 268.81,-140.59 451.65,-134.54 159.08,5.26 265.74,105.92 364.01,131.77 23.11,6.09 60.99,3.78 81.8,3.02 -29.56,126.32 -36.3,241.53 -39.8,319.86 -12.97,290.42 51.44,311.11 -407.64,581.01 -539.03,-306.01 -356.22,-299.42 -421.2,-781.63 -5.49,-40.76 -14.15,-85.88 -28.82,-119.49z"/>
   <path class="fil1" d="M398.73 521.83c124.23,20.95 246.16,-128.74 413.6,-123.21 145.68,4.83 243.36,97 333.34,120.68 21.18,5.57 55.86,3.46 74.92,2.76 -27.07,115.68 -33.25,221.18 -36.45,292.92 -11.88,265.95 47.1,284.89 -373.3,532.06 -493.62,-280.23 -326.21,-274.19 -385.71,-715.78 -5.03,-37.33 -12.96,-78.65 -26.4,-109.43z"/>
   <path class="fil2" d="M412.62 533.69c120.03,20.24 237.84,-124.39 399.62,-119.04 140.76,4.66 235.13,93.72 322.08,116.59 20.45,5.39 53.96,3.35 72.38,2.67 -26.15,111.77 -32.12,213.71 -35.22,283.02 -11.47,256.97 45.52,275.27 -360.68,514.08 -476.93,-270.76 -315.19,-264.92 -372.68,-691.59 -4.86,-36.07 -12.52,-75.99 -25.5,-105.73z"/>
   <path class="fil3" d="M741.89 775.16l0 -8.21c-19.07,-1.76 -22.88,-4.4 -32.27,-29.62 -18.77,-51.03 -38.42,-106.76 -56.6,-157.21l-9.1 2.64 -60.71 153.98c-10.26,25.81 -14.37,27.57 -32.85,30.21l0 8.21 63.65 0 0 -8.21c-22,-2.05 -24.64,-4.99 -18.18,-23.46 3.81,-12.32 8.21,-24.64 12.9,-37.84l62.47 0c6.46,17.89 12.32,33.73 16.13,45.17 3.82,11.44 1.18,13.78 -17.3,16.13l0 8.21 71.86 0zm-74.79 -82.12l-53.97 0c8.8,-24.05 18.18,-49.57 27.57,-74.79l0.59 0 25.81 74.79z"/>
   <path class="fil3" d="M986.38 1022.91c16.48,-4.41 39.73,-15.89 39.73,-43.85 0,-13.55 -5.88,-26.5 -16.48,-33.56 -9.12,-6.48 -22.07,-10.01 -44.15,-10.01l-75.65 0 0 8.24c23.55,1.77 24.73,3.53 24.73,27.97l0 118.62c0,24.73 -1.77,26.49 -27.08,28.25l0 8.25 65.05 0c23.25,0 42.68,-3.54 57.69,-11.77 17.37,-9.72 28.26,-24.73 28.26,-44.45 0,-29.44 -22.96,-42.39 -52.1,-46.8l0 -0.89zm-47.1 -2.65l0 -57.69c0,-9.71 1.18,-12.95 3.83,-14.71 2.94,-1.77 9.42,-2.95 16.78,-2.95 27.96,0 39.14,17.66 39.14,37.68 0,24.72 -13.53,37.67 -45.91,37.67l-13.84 0zm0 9.72l13.54 0c35.91,0 56.52,13.24 56.52,43.56 0,30.61 -21.49,42.97 -45.63,43.27 -18.84,0 -24.43,-5.59 -24.43,-26.79l0 -60.04z"/>
   <path class="fil3" d="M806.47 850.13l18.11 25.26c2.54,-4.73 4.33,-8.36 5.34,-10.89 1.02,-2.53 1.52,-4.68 1.52,-6.45 0,-3.49 -2.51,-5.61 -7.55,-6.34l0 -1.12 21.19 0 0 1.12c-1.67,0.15 -3.03,0.43 -4.08,0.84 -1.06,0.43 -2.05,1.06 -3,1.93 -1.86,1.73 -4.14,5.41 -6.88,11.04l-1.69 3.48c-0.91,1.95 -2.23,4.5 -3.98,7.64 1.38,1.8 3.01,3.76 4.89,5.84 1.88,2.08 3.53,3.79 5,5.13 2.07,1.88 3.89,3.25 5.43,4.09 1.54,0.85 3.05,1.28 4.52,1.28 1.56,0 2.86,-0.43 3.92,-1.28 1.06,-0.86 1.99,-2.25 2.79,-4.18l1.11 0.44c-1.82,6.17 -5.72,9.26 -11.74,9.26 -1.99,0 -4.1,-0.39 -6.27,-1.15 -2.19,-0.76 -4.18,-1.81 -5.96,-3.15 -2.72,-2.04 -5.54,-4.77 -8.46,-8.23 -1.6,2.32 -2.9,4.07 -3.93,5.24 -2.1,2.36 -4.55,4.17 -7.38,5.41 -2.8,1.25 -5.8,1.88 -8.99,1.88 -2.94,0 -5.79,-0.54 -8.54,-1.63 -2.73,-1.09 -4.98,-2.57 -6.71,-4.47 -3.23,-3.44 -4.85,-7.81 -4.85,-13.07 0,-5.18 1.56,-9.91 4.7,-14.14 1.25,-1.68 2.74,-3.24 4.46,-4.71 1.73,-1.48 4.11,-3.19 7.14,-5.15l0.88 -0.59c-2.25,-3.2 -3.87,-5.73 -4.82,-7.57 -2.21,-4.29 -3.33,-8.12 -3.33,-11.49 0,-2.1 0.5,-4.2 1.53,-6.26 1.26,-2.72 3.14,-4.8 5.59,-6.21 2.48,-1.41 5.43,-2.12 8.89,-2.12 4.5,0 8.2,1.23 11.1,3.68 2.9,2.44 4.35,5.6 4.35,9.45 0,2.82 -0.75,5.33 -2.23,7.53 -1.49,2.19 -3.91,4.34 -7.23,6.45 -2.37,1.52 -3.98,2.6 -4.84,3.21zm-7.83 4.85c-3.01,1.84 -5.37,4.43 -7.04,7.72 -1.67,3.31 -2.51,6.99 -2.51,11.04 0,2.79 0.43,5.51 1.3,8.1 0.88,2.63 2.05,4.84 3.53,6.64 1.38,1.64 3.05,2.9 4.99,3.81 1.93,0.91 3.97,1.36 6.11,1.36 3.37,0 6.38,-1.04 9.02,-3.14 0.98,-0.8 1.88,-1.69 2.68,-2.66 0.79,-0.98 1.78,-2.42 2.99,-4.3l-21.07 -28.57zm6.79 -6.04c1.69,-1.36 2.98,-2.53 3.83,-3.55 0.84,-1.02 1.6,-2.25 2.25,-3.66 1.26,-2.7 1.9,-5.58 1.9,-8.68 0,-3.65 -0.88,-6.53 -2.6,-8.69 -1.75,-2.13 -4.08,-3.21 -7.01,-3.21 -2.53,0 -4.58,0.82 -6.12,2.45 -1.56,1.64 -2.34,3.78 -2.34,6.4 0,1.56 0.31,3.12 0.94,4.68 0.64,1.56 1.84,3.72 3.61,6.45 1.71,2.62 3.55,5.23 5.54,7.81z"/>
   <path class="fil4" d="M933.63 599.74c26.59,25.94 10.49,43.72 17.6,54.55 15.48,23.6 78.59,79.94 105.79,107.23 10.83,10.87 -7.36,26.03 -15.65,16.3 -22.15,-26 -72,-95.13 -98.61,-114 -5.79,-4.11 -34.23,6.35 -56.34,-15.21 -24.59,-23.97 -37.51,-51.9 -18.66,-69.47 18.85,-17.57 41.29,-3.37 65.87,20.6z"/>
   <path class="fil4" d="M1035.71 613.56c-24.5,21.96 -25.36,32.95 -26.66,44.85 -0.61,5.6 -2.19,11.29 -4.77,14.9 -15.86,22.15 -66.57,61.79 -93.86,87.06 -10.87,10.06 6.09,25.39 14.46,16.33 22.38,-24.21 60.8,-76.69 87.2,-93.87 2.97,-1.93 9.39,-2.04 16.5,-1.71 12.54,0.6 27.4,-2.02 48.57,-25.32 12.08,-13.3 31.56,-34.43 43.99,-54.56l-53.8 52.89c-3.77,3.55 -11.87,4.51 -4.33,-5.54 16.71,-20.66 31.85,-35.85 49.17,-55.52 -26.74,22.66 -46.73,40.76 -57.08,47.64 -8.26,5.48 -11.67,2.77 -4.57,-5.59 7.3,-8.6 23.77,-24.55 51.86,-53.22 -20.59,15.03 -39.88,31.02 -60.02,46.92 -3.76,3.55 -11.86,4.52 -4.33,-5.54l55.76 -51.29c-16.55,9.03 -44.19,29.11 -58.09,41.57z"/>
   <g>
    <rect class="fil4" x="543.64" y="1099.29" width="206.15" height="12.21" rx="6.1" ry="6.1"/>
    <path class="fil4" d="M647.45 997.42c52.86,0 95.71,42.85 95.71,95.71l0 0.05 -191.43 0 0 -0.05c0,-52.86 42.85,-95.71 95.72,-95.71z"/>
    <path class="fil4" d="M647.45 983.52c8.96,0 16.23,7.27 16.23,16.24l0 0.01 -32.47 0 0 -0.01c0,-8.97 7.27,-16.24 16.24,-16.24z"/>
   </g>
   <g>
    <g>
     <path class="fil0" d="M689.78 1287.81c174.97,279.15 -81.34,315.25 0,0z"/>
     <path class="fil0" d="M484.66 1467.65c262.56,199.02 321.22,-53.08 0,0z"/>
     <path class="fil0" d="M615.09 1240.8c174.97,279.16 -81.34,315.26 0,0z"/>
     <path class="fil0" d="M360.02 1383.44c262.56,199.02 321.22,-53.09 0,0z"/>
     <path class="fil0" d="M536.27 1186.06c174.98,279.16 -81.34,315.26 0,0z"/>
     <path class="fil0" d="M250.9 1300.94c262.56,199.01 321.22,-53.09 0,0z"/>
     <path class="fil0" d="M461 1135.2c174.97,279.16 -81.35,315.25 0,0z"/>
     <path class="fil0" d="M171.97 1226.84c262.56,199.02 321.22,-53.09 0,0z"/>
     <path class="fil0" d="M384.29 1058.35c174.97,279.16 -81.34,315.25 0,0z"/>
     <path class="fil0" d="M305.1 975.93c174.97,279.16 -81.34,315.25 0,0z"/>
     <path class="fil0" d="M92.1 1141.97c262.56,199.02 321.22,-53.09 0,0z"/>
    </g>
    <path class="fil0" d="M850.47 1621.89c-57.19,-41.96 -121.96,-94.92 -196.11,-147.33 -61.46,-43.44 -133.04,-86.54 -179.13,-122.7 -47.12,-36.98 -29.55,-37.06 -75.04,-76.43 -80.05,-69.27 -160.66,-153.38 -246.27,-230.66l13.88 -12.35c82.73,80.55 165.67,161.51 243.9,233.53 44.43,40.91 24.61,40.18 69.5,75.78 44.37,35.19 114.44,76.87 175.46,120.05 72.69,51.42 137.48,105.02 198.44,152.39l-4.63 7.72z"/>
   </g>
   <g>
    <g>
     <path class="fil0" d="M935.79 1286.63c-174.97,279.16 81.34,315.26 0,0z"/>
     <path class="fil0" d="M1140.91 1466.48c-262.56,199.02 -321.22,-53.09 0,0z"/>
     <path class="fil0" d="M1010.48 1239.63c-174.97,279.16 81.34,315.26 0,0z"/>
     <path class="fil0" d="M1265.55 1382.27c-262.56,199.02 -321.22,-53.09 0,0z"/>
     <path class="fil0" d="M1089.3 1184.89c-174.98,279.16 81.34,315.25 0,0z"/>
     <path class="fil0" d="M1374.67 1299.76c-262.56,199.02 -321.22,-53.08 0,0z"/>
     <path class="fil0" d="M1164.57 1134.03c-174.97,279.16 81.35,315.25 0,0z"/>
     <path class="fil0" d="M1453.6 1225.67c-262.56,199.01 -321.22,-53.09 0,0z"/>
     <path class="fil0" d="M1241.28 1057.18c-174.97,279.16 81.34,315.25 0,0z"/>
     <path class="fil0" d="M1320.47 974.76c-174.97,279.16 81.34,315.25 0,0z"/>
     <path class="fil0" d="M1533.47 1140.8c-262.56,199.02 -321.22,-53.09 0,0z"/>
    </g>
    <path class="fil0" d="M775.1 1620.72c57.19,-41.96 121.96,-94.92 196.11,-147.33 61.46,-43.44 133.04,-86.54 179.13,-122.7 47.12,-36.98 29.55,-37.07 75.04,-76.43 80.05,-69.27 160.66,-153.38 246.28,-230.67l-13.89 -12.34c-82.73,80.55 -165.67,161.51 -243.9,233.53 -44.43,40.91 -24.61,40.17 -69.5,75.78 -44.37,35.19 -114.44,76.87 -175.46,120.04 -72.69,51.43 -137.48,105.03 -198.44,152.4l4.63 7.72z"/>
   </g>
   <rect class="fil4" x="689.86" y="231.23" width="239.34" height="95.73" rx="15.59" ry="18.71"/>
   <path class="fil4" d="M641.99 39.77c-24.7,-50.92 344.28,-45.2 335.07,0l-55.73 183.76 -230.67 0 -48.67 -183.76zm251.63 176.47l-4.51 -70.01 -4.51 -70.01 9.02 0 9.02 0 -4.51 70.01 -4.51 70.01zm-59.61 2.06l-4.51 -70.01 -4.51 -70.01 9.02 0 9.02 0 -4.51 70.01 -4.51 70.01zm-61.94 -0.69l-4.51 -70.01 -4.51 -70.01 9.02 0 9.02 0 -4.52 70.01 -4.5 70.01zm-51.19 -0.37l-4.51 -70.01 -4.51 -70 9.02 0 9.02 0 -4.51 70 -4.51 70.01z"/>
   <path class="fil5" d="M807.53 928.25l0.71 377.89c58.93,-36.95 217.37,-117.78 298.97,-220.14 45.95,-57.64 51.35,-128.16 43.6,-230.31l-270.91 -0.08c-5.34,-52.64 -48.4,-64.79 -65.17,-64.9l-0.63 -371.41c-144.39,-2.69 -221.6,117.29 -384.65,123.36 33.05,130.13 40.04,180.56 39.62,320.63l273.3 -0.05c0.89,35.11 31.52,63.86 65.16,65.01zm7.5 -7.5l0.79 371.66c59.98,-35.98 237.84,-132.28 298.41,-229.55 21.54,-34.61 39.5,-89.78 29.37,-199.54l-271.19 0.04c1.96,-36.57 -27.84,-67.83 -65.25,-65.15l-0.9 -371.47c-131.8,1.02 -216.52,116 -366.96,123.29 33.04,130.14 36.07,171.29 37.3,305.58l273.29 0.03c-1.71,38.78 29.61,66.78 65.14,65.11z"/>
  </g>
 </g>
</svg>
